<?xml version="1.0" encoding="UTF-8"?>
<svg width="500" height="500" viewBox="0 0 500 500" fill="none" xmlns="http://www.w3.org/2000/svg">
  <rect width="500" height="500" fill="#F8FAFC"/>
  <path d="M250 100C167.908 100 100 167.908 100 250C100 332.092 167.908 400 250 400C332.092 400 400 332.092 400 250C400 167.908 332.092 100 250 100Z" fill="#EFF6FF"/>
  <path d="M250 150C198.5 150 157.5 191 157.5 242.5C157.5 294 198.5 335 250 335C301.5 335 342.5 294 342.5 242.5C342.5 191 301.5 150 250 150Z" fill="#3B82F6"/>
  <path d="M250 200C223.5 200 202.5 221 202.5 247.5C202.5 274 223.5 295 250 295C276.5 295 297.5 274 297.5 247.5C297.5 221 276.5 200 250 200Z" fill="#FFFFFF"/>
  <path d="M250 225C238.5 225 229.5 234 229.5 245.5C229.5 257 238.5 266 250 266C261.5 266 270.5 257 270.5 245.5C270.5 234 261.5 225 250 225Z" fill="#3B82F6"/>
  <path d="M200 300L300 300" stroke="#3B82F6" stroke-width="10" stroke-linecap="round"/>
  <path d="M250 250L250 350" stroke="#3B82F6" stroke-width="10" stroke-linecap="round"/>
</svg> 